<mxfile host="app.diagrams.net" modified="2022-07-12T19:35:00.087Z" agent="5.0 (Windows NT 10.0; Win64; x64) AppleWebKit/537.36 (KHTML, like Gecko) Chrome/103.0.0.0 Safari/537.36" etag="SEyeUsIq0XIV3150GYwu" version="20.0.1" type="github">
  <diagram id="wqcTfxB7QWAXT4oztHex" name="Page-1">
    <mxGraphModel dx="782" dy="706" grid="1" gridSize="10" guides="1" tooltips="1" connect="1" arrows="1" fold="1" page="1" pageScale="1" pageWidth="827" pageHeight="1169" math="0" shadow="0">
      <root>
        <mxCell id="0" />
        <mxCell id="1" parent="0" />
        <mxCell id="seD8FPEbSv_546_xPAch-1" style="edgeStyle=orthogonalEdgeStyle;rounded=0;orthogonalLoop=1;jettySize=auto;html=1;exitX=0.5;exitY=1;exitDx=0;exitDy=0;entryX=0.5;entryY=0;entryDx=0;entryDy=0;fontSize=15;endArrow=none;endFill=0;" edge="1" parent="1" source="seD8FPEbSv_546_xPAch-2" target="seD8FPEbSv_546_xPAch-5">
          <mxGeometry relative="1" as="geometry" />
        </mxCell>
        <mxCell id="seD8FPEbSv_546_xPAch-2" value="начало" style="ellipse;whiteSpace=wrap;html=1;fontSize=15;" vertex="1" parent="1">
          <mxGeometry x="419" y="170" width="120" height="60" as="geometry" />
        </mxCell>
        <mxCell id="seD8FPEbSv_546_xPAch-22" value="Да" style="edgeStyle=orthogonalEdgeStyle;rounded=0;orthogonalLoop=1;jettySize=auto;html=1;exitX=1;exitY=0.5;exitDx=0;exitDy=0;entryX=0.5;entryY=0;entryDx=0;entryDy=0;endArrow=none;endFill=0;fontSize=15;" edge="1" parent="1" source="seD8FPEbSv_546_xPAch-5" target="seD8FPEbSv_546_xPAch-7">
          <mxGeometry x="-0.9712" y="15" relative="1" as="geometry">
            <mxPoint x="920" y="320" as="targetPoint" />
            <Array as="points">
              <mxPoint x="860" y="315" />
            </Array>
            <mxPoint as="offset" />
          </mxGeometry>
        </mxCell>
        <mxCell id="seD8FPEbSv_546_xPAch-23" style="edgeStyle=orthogonalEdgeStyle;rounded=0;orthogonalLoop=1;jettySize=auto;html=1;exitX=0;exitY=0.5;exitDx=0;exitDy=0;entryX=0.5;entryY=0;entryDx=0;entryDy=0;endArrow=none;endFill=0;" edge="1" parent="1" source="seD8FPEbSv_546_xPAch-5" target="seD8FPEbSv_546_xPAch-20">
          <mxGeometry relative="1" as="geometry" />
        </mxCell>
        <mxCell id="seD8FPEbSv_546_xPAch-5" value="нажата левая кнопка мыши" style="rhombus;whiteSpace=wrap;html=1;fontSize=15;" vertex="1" parent="1">
          <mxGeometry x="354" y="260" width="250" height="110" as="geometry" />
        </mxCell>
        <mxCell id="seD8FPEbSv_546_xPAch-27" style="edgeStyle=orthogonalEdgeStyle;rounded=0;orthogonalLoop=1;jettySize=auto;html=1;exitX=0.5;exitY=1;exitDx=0;exitDy=0;entryX=0.5;entryY=0;entryDx=0;entryDy=0;endArrow=none;endFill=0;" edge="1" parent="1" source="seD8FPEbSv_546_xPAch-7" target="seD8FPEbSv_546_xPAch-16">
          <mxGeometry relative="1" as="geometry">
            <Array as="points">
              <mxPoint x="860" y="860" />
              <mxPoint x="479" y="860" />
            </Array>
          </mxGeometry>
        </mxCell>
        <mxCell id="seD8FPEbSv_546_xPAch-7" value="ChartGraph.ChartAreas[0].AxisX.Interval *= 2;&lt;br&gt;ChartGraph.ChartAreas[0].AxisY.Interval *= 2;" style="rounded=0;whiteSpace=wrap;html=1;fontSize=15;" vertex="1" parent="1">
          <mxGeometry x="690" y="475" width="340" height="60" as="geometry" />
        </mxCell>
        <mxCell id="seD8FPEbSv_546_xPAch-16" value="конец" style="ellipse;whiteSpace=wrap;html=1;fontSize=15;" vertex="1" parent="1">
          <mxGeometry x="419" y="900" width="120" height="60" as="geometry" />
        </mxCell>
        <mxCell id="seD8FPEbSv_546_xPAch-24" value="Да" style="edgeStyle=orthogonalEdgeStyle;rounded=0;orthogonalLoop=1;jettySize=auto;html=1;exitX=1;exitY=0.5;exitDx=0;exitDy=0;entryX=0.5;entryY=0;entryDx=0;entryDy=0;endArrow=none;endFill=0;fontSize=14;" edge="1" parent="1" source="seD8FPEbSv_546_xPAch-20" target="seD8FPEbSv_546_xPAch-21">
          <mxGeometry x="-1" y="15" relative="1" as="geometry">
            <Array as="points">
              <mxPoint x="480" y="545" />
              <mxPoint x="480" y="640" />
            </Array>
            <mxPoint as="offset" />
          </mxGeometry>
        </mxCell>
        <mxCell id="seD8FPEbSv_546_xPAch-26" style="edgeStyle=orthogonalEdgeStyle;rounded=0;orthogonalLoop=1;jettySize=auto;html=1;exitX=0;exitY=0.5;exitDx=0;exitDy=0;entryX=0.5;entryY=0;entryDx=0;entryDy=0;endArrow=none;endFill=0;" edge="1" parent="1" source="seD8FPEbSv_546_xPAch-20" target="seD8FPEbSv_546_xPAch-16">
          <mxGeometry relative="1" as="geometry">
            <Array as="points">
              <mxPoint x="110" y="545" />
              <mxPoint x="110" y="860" />
              <mxPoint x="479" y="860" />
            </Array>
          </mxGeometry>
        </mxCell>
        <mxCell id="seD8FPEbSv_546_xPAch-20" value="нажата правая кнопка мыши" style="rhombus;whiteSpace=wrap;html=1;fontSize=15;" vertex="1" parent="1">
          <mxGeometry x="140" y="490" width="250" height="110" as="geometry" />
        </mxCell>
        <mxCell id="seD8FPEbSv_546_xPAch-25" style="edgeStyle=orthogonalEdgeStyle;rounded=0;orthogonalLoop=1;jettySize=auto;html=1;exitX=0.5;exitY=1;exitDx=0;exitDy=0;entryX=0.5;entryY=0;entryDx=0;entryDy=0;endArrow=none;endFill=0;" edge="1" parent="1" source="seD8FPEbSv_546_xPAch-21" target="seD8FPEbSv_546_xPAch-16">
          <mxGeometry relative="1" as="geometry">
            <mxPoint x="590" y="900" as="targetPoint" />
            <Array as="points">
              <mxPoint x="479" y="740" />
              <mxPoint x="479" y="740" />
            </Array>
          </mxGeometry>
        </mxCell>
        <mxCell id="seD8FPEbSv_546_xPAch-21" value="ChartGraph.ChartAreas[0].AxisX.Interval *= 0.5;&lt;br&gt;ChartGraph.ChartAreas[0].AxisY.Interval *= 0.5;" style="rounded=0;whiteSpace=wrap;html=1;fontSize=15;" vertex="1" parent="1">
          <mxGeometry x="309" y="640" width="340" height="60" as="geometry" />
        </mxCell>
        <mxCell id="seD8FPEbSv_546_xPAch-28" value="Нет" style="edgeStyle=orthogonalEdgeStyle;rounded=0;orthogonalLoop=1;jettySize=auto;html=1;exitX=0;exitY=0.5;exitDx=0;exitDy=0;endArrow=classic;endFill=1;strokeWidth=0.5;fontSize=14;" edge="1" parent="1">
          <mxGeometry x="-0.9101" y="-14" relative="1" as="geometry">
            <mxPoint x="354" y="314.5" as="sourcePoint" />
            <mxPoint x="265" y="314.5" as="targetPoint" />
            <Array as="points">
              <mxPoint x="320" y="315" />
              <mxPoint x="320" y="315" />
            </Array>
            <mxPoint as="offset" />
          </mxGeometry>
        </mxCell>
        <mxCell id="seD8FPEbSv_546_xPAch-29" value="Нет" style="edgeStyle=orthogonalEdgeStyle;rounded=0;orthogonalLoop=1;jettySize=auto;html=1;exitX=0;exitY=0.5;exitDx=0;exitDy=0;endArrow=classic;endFill=1;strokeWidth=0.5;fontSize=14;" edge="1" parent="1">
          <mxGeometry x="-1" y="-14" relative="1" as="geometry">
            <mxPoint x="140" y="544.5" as="sourcePoint" />
            <mxPoint x="110" y="545" as="targetPoint" />
            <mxPoint as="offset" />
          </mxGeometry>
        </mxCell>
        <mxCell id="seD8FPEbSv_546_xPAch-31" style="edgeStyle=orthogonalEdgeStyle;rounded=0;orthogonalLoop=1;jettySize=auto;html=1;exitX=0;exitY=0.5;exitDx=0;exitDy=0;endArrow=classic;endFill=1;" edge="1" parent="1">
          <mxGeometry relative="1" as="geometry">
            <mxPoint x="554" y="860" as="sourcePoint" />
            <mxPoint x="480" y="860" as="targetPoint" />
          </mxGeometry>
        </mxCell>
      </root>
    </mxGraphModel>
  </diagram>
</mxfile>
